<svg version="1.1" viewBox="0 0 33.22 33.22" xmlns="http://www.w3.org/2000/svg">
	<rect width="33.22" height="33.22" rx="1.8771" ry="2.2217" fill="#ae4224" fill-rule="evenodd"/>
	<g transform="translate(10.61 8.6102)" fill="#fefefe">
		<path d="m5.055 0.32c0.81 2.17 0.41 3.38-0.52 4.31-0.98 1.05-2.55 1.83-3.63 3.36-1.45 2.05-1.7 6.53 3.53 7.7-2.2-1.16-2.67-4.52-0.3-6.61-0.61 2.03 0.53 3.33 1.94 2.86 1.39-0.47 2.3 0.53 2.27 1.67-0.02 0.78-0.31 1.44-1.13 1.81 3.42-0.59 4.78-3.42 4.78-5.56 0-2.84-2.53-3.22-1.25-5.61-1.52 0.13-2.03 1.13-1.89 2.75 0.09 1.08-1.02 1.8-1.86 1.33-0.67-0.41-0.66-1.19-0.06-1.78 1.25-1.23 1.75-4.09-1.88-6.22l-0.02-0.02z" fill-rule="evenodd"/>
		<path d="m4.8927-8.6102v2.2833c-7.025 0.60084-12.587 6.1914-13.151 13.22h-2.352v2.2147h2.3542c0.5641 7.0273 6.1245 12.618 13.149 13.22v2.2833h2.2147v-2.2833c7.0604-0.51824 12.677-6.1568 13.22-13.22h2.2833v-2.2147h-2.2833c-0.5426-7.0627-6.1568-12.772-13.22-13.288v-2.2147zm1.176 6.2299c5.7737 0 10.382 4.6066 10.382 10.38 0 5.7737-4.6088 10.382-10.382 10.382-5.7715 0-10.52-4.611-10.52-10.382 0-5.7715 4.7483-10.382 10.52-10.382z" />
	</g>
</svg>
