<?xml version="1.0" standalone="no"?>
<!DOCTYPE svg PUBLIC "-//W3C//DTD SVG 20010904//EN"
 "http://www.w3.org/TR/2001/REC-SVG-20010904/DTD/svg10.dtd">
<svg version="1.0" xmlns="http://www.w3.org/2000/svg"
 width="700.000000pt" height="700.000000pt" viewBox="0 0 700.000000 700.000000"
 preserveAspectRatio="xMidYMid meet">
<metadata>
Created by potrace 1.11, written by Peter Selinger 2001-2013
</metadata>
<g transform="translate(0.000000,700.000000) scale(0.100000,-0.100000)"
fill="#000000" stroke="none">
<path d="M3265 6759 l0 -242 -35 -2 c-46 -3 -121 -13 -190 -25 -30 -5 -73 -12
-95 -16 -57 -8 -213 -48 -330 -84 -332 -102 -686 -288 -962 -505 -138 -109
-325 -287 -423 -404 -25 -30 -50 -59 -56 -65 -22 -24 -133 -175 -181 -246 -99
-148 -242 -415 -268 -500 -4 -14 -11 -29 -15 -35 -10 -13 -95 -262 -116 -341
-31 -113 -36 -135 -57 -254 -18 -95 -23 -129 -32 -215 -4 -33 -9 -67 -11 -75
-4 -14 -35 -16 -237 -15 -127 0 -238 -1 -244 -3 -10 -3 -13 -59 -13 -236 l0
-231 245 1 c135 1 247 -2 249 -5 2 -3 7 -37 10 -76 4 -38 9 -81 11 -95 2 -14
7 -43 10 -65 38 -263 159 -636 291 -890 66 -128 78 -149 160 -275 259 -401
583 -712 1008 -970 218 -132 588 -282 827 -335 135 -30 215 -45 264 -50 33 -4
63 -9 66 -11 3 -1 29 -4 57 -5 29 -2 56 -7 61 -13 4 -6 8 -116 7 -243 l-1
-233 231 0 c177 0 233 3 236 13 2 6 3 114 3 240 -1 200 0 227 14 228 9 0 23 2
32 4 9 1 49 6 89 9 41 4 76 9 79 10 3 2 29 7 56 10 94 12 305 64 445 109 102
34 121 41 205 77 22 10 65 28 95 41 230 98 531 291 745 479 466 410 805 971
950 1575 13 55 29 132 35 170 6 39 13 80 15 91 5 32 21 159 24 195 1 14 28 16
224 16 122 1 230 2 240 2 16 1 17 19 17 230 0 174 -3 230 -12 233 -7 2 -115 3
-240 3 -126 -1 -229 1 -229 4 -1 4 -2 20 -4 37 -2 29 -10 92 -21 174 -63 457
-259 936 -546 1340 -34 47 -66 90 -72 95 -6 6 -27 30 -46 55 -134 174 -399
418 -623 574 -292 203 -665 369 -1002 446 -132 31 -172 38 -340 59 l-130 17
-1 219 c-1 121 -2 226 -3 233 -1 9 -55 12 -233 12 l-233 0 0 -241z m520 -1088
c830 -107 1509 -649 1787 -1426 41 -114 91 -309 104 -405 4 -30 9 -66 12 -80
12 -66 9 -442 -4 -540 -63 -481 -275 -916 -610 -1256 -182 -184 -355 -309
-589 -424 -237 -117 -441 -177 -721 -213 -139 -18 -451 -14 -561 7 -12 3 -43
8 -70 11 -68 10 -224 49 -329 84 -601 198 -1115 676 -1344 1251 -75 186 -130
401 -145 560 -4 36 -8 81 -11 100 -5 43 -4 278 1 340 30 354 156 716 350 1011
101 152 214 284 361 419 215 198 508 369 796 464 116 38 184 55 382 92 11 2
58 6 105 10 47 3 87 7 89 9 8 7 320 -4 397 -14z"/>
<path d="M3331 5027 c66 -197 76 -413 26 -555 -57 -163 -151 -268 -462 -516
-331 -264 -482 -431 -564 -625 -150 -355 -116 -744 90 -1015 103 -136 212
-224 384 -310 105 -51 335 -130 335 -113 0 3 -22 19 -50 37 -27 17 -75 60
-106 93 -223 245 -271 598 -124 923 23 49 102 177 123 199 7 6 26 27 43 46 17
19 42 44 56 57 l25 23 -14 -53 c-36 -131 -23 -290 33 -400 72 -141 229 -199
395 -146 127 40 253 22 340 -49 84 -68 130 -170 131 -289 1 -162 -56 -283
-170 -359 -24 -15 -41 -29 -39 -31 5 -6 150 34 217 59 176 66 318 160 439 291
20 21 41 44 47 50 64 68 171 259 212 381 51 149 77 383 57 510 -22 139 -77
270 -177 426 -117 180 -145 245 -151 346 -4 76 17 172 52 240 l21 43 -34 -5
c-153 -19 -257 -88 -316 -209 -41 -83 -51 -147 -51 -306 1 -171 -12 -214 -83
-286 -182 -182 -474 -37 -399 198 10 30 42 78 90 135 130 153 173 259 178 443
4 103 1 138 -16 200 -60 225 -220 426 -476 598 -94 63 -93 64 -62 -31z"/>
</g>
</svg>
